<?xml version="1.0" encoding="UTF-8" standalone="no"?>
<!-- Created with Inkscape (http://www.inkscape.org/) -->

<svg
   xmlns:dc="http://purl.org/dc/elements/1.1/"
   xmlns:cc="http://creativecommons.org/ns#"
   xmlns:rdf="http://www.w3.org/1999/02/22-rdf-syntax-ns#"
   xmlns:svg="http://www.w3.org/2000/svg"
   xmlns="http://www.w3.org/2000/svg"
   xmlns:sodipodi="http://sodipodi.sourceforge.net/DTD/sodipodi-0.dtd"
   xmlns:inkscape="http://www.inkscape.org/namespaces/inkscape"
   version="1.1"
   width="217.2"
   height="217.2"
   id="svg2"
   inkscape:version="0.48.2 r9819"
   sodipodi:docname="confusion-33.svg">
  <sodipodi:namedview
     pagecolor="#ffffff"
     bordercolor="#666666"
     borderopacity="1"
     objecttolerance="10"
     gridtolerance="10"
     guidetolerance="10"
     inkscape:pageopacity="0"
     inkscape:pageshadow="2"
     inkscape:window-width="640"
     inkscape:window-height="480"
     id="namedview4117"
     showgrid="false"
     inkscape:zoom="1.0865562"
     inkscape:cx="108.6"
     inkscape:cy="108.6"
     inkscape:window-x="0"
     inkscape:window-y="0"
     inkscape:window-maximized="0"
     inkscape:current-layer="svg2" />
  <metadata
     id="metadata172">
    <rdf:RDF>
      <cc:Work
         rdf:about="">
        <dc:format>image/svg+xml</dc:format>
        <dc:type
           rdf:resource="http://purl.org/dc/dcmitype/StillImage" />
        <dc:title />
      </cc:Work>
    </rdf:RDF>
  </metadata>
  <defs
     id="defs170">
    <marker
       refX="0"
       refY="0"
       orient="auto"
       id="Arrow2Mstart"
       style="overflow:visible">
      <path
         d="M 8.7185878,4.0337352 -2.2072895,0.01601326 8.7185884,-4.0017078 c -1.7454984,2.3720609 -1.7354408,5.6174519 -6e-7,8.035443 z"
         transform="scale(0.6,0.6)"
         id="path3792"
         style="font-size:12px;fill-rule:evenodd;stroke-width:0.625;stroke-linejoin:round" />
    </marker>
    <marker
       refX="0"
       refY="0"
       orient="auto"
       id="marker23346"
       style="overflow:visible">
      <path
         d="M 8.7185878,4.0337352 -2.2072895,0.01601326 8.7185884,-4.0017078 c -1.7454984,2.3720609 -1.7354408,5.6174519 -6e-7,8.035443 z"
         transform="scale(0.6,0.6)"
         id="path23348"
         style="font-size:12px;fill-rule:evenodd;stroke-width:0.625;stroke-linejoin:round" />
    </marker>
    <marker
       refX="0"
       refY="0"
       orient="auto"
       id="Arrow2Mstart-7"
       style="overflow:visible">
      <path
         d="M 8.7185878,4.0337352 -2.2072895,0.01601326 8.7185884,-4.0017078 c -1.7454984,2.3720609 -1.7354408,5.6174519 -6e-7,8.035443 z"
         transform="scale(0.6,0.6)"
         id="path3792-0"
         style="font-size:12px;fill-rule:evenodd;stroke-width:0.625;stroke-linejoin:round" />
    </marker>
    <marker
       refX="0"
       refY="0"
       orient="auto"
       id="marker23390"
       style="overflow:visible">
      <path
         d="M 8.7185878,4.0337352 -2.2072895,0.01601326 8.7185884,-4.0017078 c -1.7454984,2.3720609 -1.7354408,5.6174519 -6e-7,8.035443 z"
         transform="scale(0.6,0.6)"
         id="path23392"
         style="font-size:12px;fill-rule:evenodd;stroke-width:0.625;stroke-linejoin:round" />
    </marker>
  </defs>
  <path
     d="m 108.6,108.6 0,50"
     id="path8"
     style="fill:none;stroke:#808080;stroke-width:5;stroke-linecap:round;stroke-opacity:1" />
  <path
     d="m 108.6,158.6 0,-100"
     id="path10"
     style="fill:none;stroke:#808080;stroke-width:5;stroke-linecap:round;stroke-opacity:1" />
  <path
     d="m 108.6,58.6 100,0"
     id="path12"
     style="fill:none;stroke:#808080;stroke-width:5;stroke-linecap:round;stroke-opacity:1" />
  <path
     d="m 208.6,58.6 0,15"
     id="path14"
     style="fill:none;stroke:#808080;stroke-width:5;stroke-linecap:round;stroke-opacity:1" />
  <path
     d="m 208.6,73.6 -85,0"
     id="path16"
     style="fill:none;stroke:#808080;stroke-width:5;stroke-linecap:round;stroke-opacity:1" />
  <path
     d="m 123.6,73.6 0,70"
     id="path18"
     style="fill:none;stroke:#808080;stroke-width:5;stroke-linecap:round;stroke-opacity:1" />
  <path
     d="m 123.6,143.6 85,0"
     id="path20"
     style="fill:none;stroke:#808080;stroke-width:5;stroke-linecap:round;stroke-opacity:1" />
  <path
     d="m 208.6,143.6 0,15"
     id="path22"
     style="fill:none;stroke:#808080;stroke-width:5;stroke-linecap:round;stroke-opacity:1" />
  <path
     d="m 208.6,158.6 -100,0"
     id="path24"
     style="fill:none;stroke:#808080;stroke-width:5;stroke-linecap:round;stroke-opacity:1" />
  <path
     d="m 108.6,158.6 0,-50"
     id="path26"
     style="fill:none;stroke:#808080;stroke-width:5;stroke-linecap:round;stroke-opacity:1" />
  <path
     d="M 108.6,108.6 144,144"
     id="path28"
     style="fill:none;stroke:#808080;stroke-width:5;stroke-linecap:round;stroke-opacity:1" />
  <path
     d="M 144,144 73.2,73.2"
     id="path30"
     style="fill:none;stroke:#808080;stroke-width:5;stroke-linecap:round;stroke-opacity:1" />
  <path
     d="M 73.2,73.2 144,2.5"
     id="path32"
     style="fill:none;stroke:#808080;stroke-width:5;stroke-linecap:round;stroke-opacity:1" />
  <path
     d="m 144,2.5 10.6,10.6"
     id="path34"
     style="fill:none;stroke:#808080;stroke-width:5;stroke-linecap:round;stroke-opacity:1" />
  <path
     d="M 154.6,13.1 94.5,73.2"
     id="path36"
     style="fill:none;stroke:#808080;stroke-width:5;stroke-linecap:round;stroke-opacity:1" />
  <path
     d="M 94.5,73.2 144,122.7"
     id="path38"
     style="fill:none;stroke:#808080;stroke-width:5;stroke-linecap:round;stroke-opacity:1" />
  <path
     d="M 144,122.7 204.1,62.6"
     id="path40"
     style="fill:none;stroke:#808080;stroke-width:5;stroke-linecap:round;stroke-opacity:1" />
  <path
     d="m 204.1,62.6 10.6,10.6"
     id="path42"
     style="fill:none;stroke:#808080;stroke-width:5;stroke-linecap:round;stroke-opacity:1" />
  <path
     d="M 214.7,73.2 144,144"
     id="path44"
     style="fill:none;stroke:#808080;stroke-width:5;stroke-linecap:round;stroke-opacity:1" />
  <path
     d="M 144,144 108.6,108.6"
     id="path46"
     style="fill:none;stroke:#808080;stroke-width:5;stroke-linecap:round;stroke-opacity:1" />
  <path
     d="m 108.6,108.6 50,0"
     id="path48"
     style="fill:none;stroke:#808080;stroke-width:5;stroke-linecap:round;stroke-opacity:1" />
  <path
     d="m 158.6,108.6 -100,0"
     id="path50"
     style="fill:none;stroke:#808080;stroke-width:5;stroke-linecap:round;stroke-opacity:1" />
  <path
     d="m 58.6,108.6 0,-100"
     id="path52"
     style="fill:none;stroke:#808080;stroke-width:5;stroke-linecap:round;stroke-opacity:1" />
  <path
     d="m 58.6,8.6 15,0"
     id="path54"
     style="fill:none;stroke:#808080;stroke-width:5;stroke-linecap:round;stroke-opacity:1" />
  <path
     d="m 73.6,8.6 0,85"
     id="path56"
     style="fill:none;stroke:#808080;stroke-width:5;stroke-linecap:round;stroke-opacity:1" />
  <path
     d="m 73.6,93.6 70,0"
     id="path58"
     style="fill:none;stroke:#808080;stroke-width:5;stroke-linecap:round;stroke-opacity:1" />
  <path
     d="m 143.6,93.6 0,-85"
     id="path60"
     style="fill:none;stroke:#808080;stroke-width:5;stroke-linecap:round;stroke-opacity:1" />
  <path
     d="m 143.6,8.6 15,0"
     id="path62"
     style="fill:none;stroke:#808080;stroke-width:5;stroke-linecap:round;stroke-opacity:1" />
  <path
     d="m 158.6,8.6 0,100"
     id="path64"
     style="fill:none;stroke:#808080;stroke-width:5;stroke-linecap:round;stroke-opacity:1" />
  <path
     d="m 158.6,108.6 -50,0"
     id="path66"
     style="fill:none;stroke:#808080;stroke-width:5;stroke-linecap:round;stroke-opacity:1" />
  <path
     d="M 108.6,108.6 144,73.2"
     id="path68"
     style="fill:none;stroke:#808080;stroke-width:5;stroke-linecap:round;stroke-opacity:1" />
  <path
     d="M 144,73.2 73.2,144"
     id="path70"
     style="fill:none;stroke:#808080;stroke-width:5;stroke-linecap:round;stroke-opacity:1" />
  <path
     d="M 73.2,144 2.5,73.2"
     id="path72"
     style="fill:none;stroke:#808080;stroke-width:5;stroke-linecap:round;stroke-opacity:1" />
  <path
     d="M 2.5,73.2 13.1,62.6"
     id="path74"
     style="fill:none;stroke:#808080;stroke-width:5;stroke-linecap:round;stroke-opacity:1" />
  <path
     d="m 13.1,62.6 60.1,60.1"
     id="path76"
     style="fill:none;stroke:#808080;stroke-width:5;stroke-linecap:round;stroke-opacity:1" />
  <path
     d="M 73.2,122.7 122.7,73.2"
     id="path78"
     style="fill:none;stroke:#808080;stroke-width:5;stroke-linecap:round;stroke-opacity:1" />
  <path
     d="M 122.7,73.2 62.6,13.1"
     id="path80"
     style="fill:none;stroke:#808080;stroke-width:5;stroke-linecap:round;stroke-opacity:1" />
  <path
     d="M 62.6,13.1 73.2,2.5"
     id="path82"
     style="fill:none;stroke:#808080;stroke-width:5;stroke-linecap:round;stroke-opacity:1" />
  <path
     d="M 73.2,2.5 144,73.2"
     id="path84"
     style="fill:none;stroke:#808080;stroke-width:5;stroke-linecap:round;stroke-opacity:1" />
  <path
     d="m 144,73.2 -35.4,35.4"
     id="path86"
     style="fill:none;stroke:#808080;stroke-width:5;stroke-linecap:round;stroke-opacity:1" />
  <path
     d="m 108.6,108.6 0,-50"
     id="path88"
     style="fill:none;stroke:#808080;stroke-width:5;stroke-linecap:round;stroke-opacity:1" />
  <path
     d="m 108.6,58.6 0,100"
     id="path90"
     style="fill:none;stroke:#808080;stroke-width:5;stroke-linecap:round;stroke-opacity:1" />
  <path
     d="m 108.6,158.6 -100,0"
     id="path92"
     style="fill:none;stroke:#808080;stroke-width:5;stroke-linecap:round;stroke-opacity:1" />
  <path
     d="m 8.6,158.6 0,-15"
     id="path94"
     style="fill:none;stroke:#808080;stroke-width:5;stroke-linecap:round;stroke-opacity:1" />
  <path
     d="m 8.6,143.6 85,0"
     id="path96"
     style="fill:none;stroke:#808080;stroke-width:5;stroke-linecap:round;stroke-opacity:1" />
  <path
     d="m 93.6,143.6 0,-70"
     id="path98"
     style="fill:none;stroke:#808080;stroke-width:5;stroke-linecap:round;stroke-opacity:1" />
  <path
     d="m 93.6,73.6 -85,0"
     id="path100"
     style="fill:none;stroke:#808080;stroke-width:5;stroke-linecap:round;stroke-opacity:1" />
  <path
     d="m 8.6,73.6 0,-15"
     id="path102"
     style="fill:none;stroke:#808080;stroke-width:5;stroke-linecap:round;stroke-opacity:1" />
  <path
     d="m 8.6,58.6 100,0"
     id="path104"
     style="fill:none;stroke:#808080;stroke-width:5;stroke-linecap:round;stroke-opacity:1" />
  <path
     d="m 108.6,58.6 0,50"
     id="path106"
     style="fill:none;stroke:#808080;stroke-width:5;stroke-linecap:round;stroke-opacity:1" />
  <path
     d="M 108.6,108.6 73.2,73.2"
     id="path108"
     style="fill:none;stroke:#808080;stroke-width:5;stroke-linecap:round;stroke-opacity:1" />
  <path
     d="M 73.2,73.2 144,144"
     id="path110"
     style="fill:none;stroke:#808080;stroke-width:5;stroke-linecap:round;stroke-opacity:1" />
  <path
     d="M 144,144 73.2,214.7"
     id="path112"
     style="fill:none;stroke:#808080;stroke-width:5;stroke-linecap:round;stroke-opacity:1" />
  <path
     d="M 73.2,214.7 62.6,204.1"
     id="path114"
     style="fill:none;stroke:#808080;stroke-width:5;stroke-linecap:round;stroke-opacity:1" />
  <path
     d="M 62.6,204.1 122.7,144"
     id="path116"
     style="fill:none;stroke:#808080;stroke-width:5;stroke-linecap:round;stroke-opacity:1" />
  <path
     d="M 122.7,144 73.2,94.5"
     id="path118"
     style="fill:none;stroke:#808080;stroke-width:5;stroke-linecap:round;stroke-opacity:1" />
  <path
     d="M 73.2,94.5 13.1,154.6"
     id="path120"
     style="fill:none;stroke:#808080;stroke-width:5;stroke-linecap:round;stroke-opacity:1" />
  <path
     d="M 13.1,154.6 2.5,144"
     id="path122"
     style="fill:none;stroke:#808080;stroke-width:5;stroke-linecap:round;stroke-opacity:1" />
  <path
     d="M 2.5,144 73.2,73.2"
     id="path124"
     style="fill:none;stroke:#808080;stroke-width:5;stroke-linecap:round;stroke-opacity:1" />
  <path
     d="m 73.2,73.2 35.4,35.4"
     id="path126"
     style="fill:none;stroke:#808080;stroke-width:5;stroke-linecap:round;stroke-opacity:1" />
  <path
     d="m 108.6,108.6 -50,0"
     id="path128"
     style="fill:none;stroke:#808080;stroke-width:5;stroke-linecap:round;stroke-opacity:1" />
  <path
     d="m 58.6,108.6 100,0"
     id="path130"
     style="fill:none;stroke:#808080;stroke-width:5;stroke-linecap:round;stroke-opacity:1" />
  <path
     d="m 158.6,108.6 0,100"
     id="path132"
     style="fill:none;stroke:#808080;stroke-width:5;stroke-linecap:round;stroke-opacity:1" />
  <path
     d="m 158.6,208.6 -15,0"
     id="path134"
     style="fill:none;stroke:#808080;stroke-width:5;stroke-linecap:round;stroke-opacity:1" />
  <path
     d="m 143.6,208.6 0,-85"
     id="path136"
     style="fill:none;stroke:#808080;stroke-width:5;stroke-linecap:round;stroke-opacity:1" />
  <path
     d="m 143.6,123.6 -70,0"
     id="path138"
     style="fill:none;stroke:#808080;stroke-width:5;stroke-linecap:round;stroke-opacity:1" />
  <path
     d="m 73.6,123.6 0,85"
     id="path140"
     style="fill:none;stroke:#808080;stroke-width:5;stroke-linecap:round;stroke-opacity:1" />
  <path
     d="m 73.6,208.6 -15,0"
     id="path142"
     style="fill:none;stroke:#808080;stroke-width:5;stroke-linecap:round;stroke-opacity:1" />
  <path
     d="m 58.6,208.6 0,-100"
     id="path144"
     style="fill:none;stroke:#808080;stroke-width:5;stroke-linecap:round;stroke-opacity:1" />
  <path
     d="m 58.6,108.6 50,0"
     id="path146"
     style="fill:none;stroke:#808080;stroke-width:5;stroke-linecap:round;stroke-opacity:1" />
  <path
     d="M 108.6,108.6 73.2,144"
     id="path148"
     style="fill:none;stroke:#808080;stroke-width:5;stroke-linecap:round;stroke-opacity:1" />
  <path
     d="M 73.2,144 144,73.2"
     id="path150"
     style="fill:none;stroke:#808080;stroke-width:5;stroke-linecap:round;stroke-opacity:1" />
  <path
     d="M 144,73.2 214.7,144"
     id="path152"
     style="fill:none;stroke:#808080;stroke-width:5;stroke-linecap:round;stroke-opacity:1" />
  <path
     d="m 214.7,144 -10.6,10.6"
     id="path154"
     style="fill:none;stroke:#808080;stroke-width:5;stroke-linecap:round;stroke-opacity:1" />
  <path
     d="M 204.1,154.6 144,94.5"
     id="path156"
     style="fill:none;stroke:#808080;stroke-width:5;stroke-linecap:round;stroke-opacity:1" />
  <path
     d="M 144,94.5 94.5,144"
     id="path158"
     style="fill:none;stroke:#808080;stroke-width:5;stroke-linecap:round;stroke-opacity:1" />
  <path
     d="m 94.5,144 60.1,60.1"
     id="path160"
     style="fill:none;stroke:#808080;stroke-width:5;stroke-linecap:round;stroke-opacity:1" />
  <path
     d="M 154.6,204.1 144,214.7"
     id="path162"
     style="fill:none;stroke:#808080;stroke-width:5;stroke-linecap:round;stroke-opacity:1" />
  <path
     d="M 144,214.7 73.2,144"
     id="path164"
     style="fill:none;stroke:#808080;stroke-width:5;stroke-linecap:round;stroke-opacity:1" />
  <path
     d="m 73.2,144 35.4,-35.4"
     id="path166"
     style="fill:none;stroke:#808080;stroke-width:5;stroke-linecap:round;stroke-opacity:1" />
</svg>
