<?xml version="1.0" encoding="UTF-8" standalone="no"?>
<!-- Created with Inkscape (http://www.inkscape.org/) -->

<svg
   xmlns:dc="http://purl.org/dc/elements/1.1/"
   xmlns:cc="http://creativecommons.org/ns#"
   xmlns:rdf="http://www.w3.org/1999/02/22-rdf-syntax-ns#"
   xmlns:svg="http://www.w3.org/2000/svg"
   xmlns="http://www.w3.org/2000/svg"
   version="1.1"
   width="172.96875"
   height="45.75"
   id="svg2">
  <defs
     id="defs4" />
  <metadata
     id="metadata7">
    <rdf:RDF>
      <cc:Work
         rdf:about="">
        <dc:format>image/svg+xml</dc:format>
        <dc:type
           rdf:resource="http://purl.org/dc/dcmitype/StillImage" />
        <dc:title></dc:title>
      </cc:Work>
    </rdf:RDF>
  </metadata>
  <path
     d="m 25.629667,22.874866 a 2.7561572,2.7561572 0 0 1 -5.512314,0 2.7561572,2.7561572 0 1 1 5.512314,0 z"
     id="path2987"
     style="fill:#000000;stroke:#000000;stroke-width:0.23470592;stroke-linecap:square;stroke-miterlimit:4;stroke-opacity:1;stroke-dasharray:none;stroke-dashoffset:0" />
  <path
     d="m 46.833981,22.874866 a 2.7561572,2.7561572 0 0 1 -5.512314,0 2.7561572,2.7561572 0 1 1 5.512314,0 z"
     id="path2987-30"
     style="fill:#000000;stroke:#000000;stroke-width:0.23470592;stroke-linecap:square;stroke-miterlimit:4;stroke-opacity:1;stroke-dasharray:none;stroke-dashoffset:0" />
  <path
     d="m 68.03828,22.874866 a 2.7561572,2.7561572 0 0 1 -5.512314,0 2.7561572,2.7561572 0 1 1 5.512314,0 z"
     id="path2987-05"
     style="fill:#000000;stroke:#000000;stroke-width:0.23470592;stroke-linecap:square;stroke-miterlimit:4;stroke-opacity:1;stroke-dasharray:none;stroke-dashoffset:0" />
  <path
     d="m 89.24259,22.877299 a 2.7561572,2.7561572 0 0 1 -5.51231,0 2.7561572,2.7561572 0 1 1 5.51231,0 z"
     id="path2987-9"
     style="fill:#000000;stroke:#000000;stroke-width:0.23470592;stroke-linecap:square;stroke-miterlimit:4;stroke-opacity:1;stroke-dasharray:none;stroke-dashoffset:0" />
  <path
     d="m 110.44689,22.877299 a 2.7561572,2.7561572 0 0 1 -5.51231,0 2.7561572,2.7561572 0 1 1 5.51231,0 z"
     id="path2987-16"
     style="fill:#000000;stroke:#000000;stroke-width:0.23470592;stroke-linecap:square;stroke-miterlimit:4;stroke-opacity:1;stroke-dasharray:none;stroke-dashoffset:0" />
  <path
     d="m 131.6512,22.877298 a 2.7561572,2.7561572 0 0 1 -5.51231,0 2.7561572,2.7561572 0 1 1 5.51231,0 z"
     id="path2987-36"
     style="fill:#000000;stroke:#000000;stroke-width:0.23470592;stroke-linecap:square;stroke-miterlimit:4;stroke-opacity:1;stroke-dasharray:none;stroke-dashoffset:0" />
  <path
     d="m 152.8555,22.877298 a 2.7561572,2.7561572 0 0 1 -5.51231,0 2.7561572,2.7561572 0 1 1 5.51231,0 z"
     id="path2987-2"
     style="fill:#000000;stroke:#000000;stroke-width:0.23470592;stroke-linecap:square;stroke-miterlimit:4;stroke-opacity:1;stroke-dasharray:none;stroke-dashoffset:0" />
</svg>
